<?xml version="1.0" encoding="iso-8859-1"?>
<!-- Generator: Adobe Illustrator 19.0.0, SVG Export Plug-In . SVG Version: 6.00 Build 0)  -->
<svg xmlns="http://www.w3.org/2000/svg" xmlns:xlink="http://www.w3.org/1999/xlink" version="1.1" id="Capa_1" x="0px" y="0px" viewBox="0 0 512 512" style="enable-background:new 0 0 512 512;" xml:space="preserve" width="512px" height="512px">
<g>
	<g>
		<path d="M184.376,82.839c-4.206,0-7.614,3.409-7.614,7.614v10.007c0,4.205,3.408,7.614,7.614,7.614    c4.206,0,7.614-3.409,7.614-7.614V90.453C191.99,86.248,188.582,82.839,184.376,82.839z" fill="#91DC5A"/>
	</g>
</g>
<g>
	<g>
		<path d="M366.483,210.587c-2.681-3.24-7.48-3.694-10.72-1.016l-19.31,15.966c-10.608,8.771-21.765,16.354-33.165,22.536    c-2.523,1.369-5.026,2.782-7.447,4.149c-13.021,7.351-25.316,14.296-38.105,12.795c-14.397-1.686-29.727-14.196-46.829-38.211    c-2.786-6.489-6.806-12.484-11.998-17.632c-5.814-5.765-12.358-10.532-19.415-14.233c17.438-9.367,29.324-27.781,29.324-48.927    v-5.969h16.375c2.433,0,4.722-1.163,6.155-3.132c1.433-1.967,1.84-4.502,1.092-6.819l-23.464-72.782    c16.835-10.167,28.115-28.638,28.115-49.698c0-4.205-3.408-7.614-7.614-7.614H114.002C87.157,0.002,64.486,20.105,61.275,46.694    L43.774,181.52c-0.538,4.144,2.364,7.947,6.502,8.521l50.589,7.027c-2.601,1.55-5.111,3.271-7.541,5.122    c-11.573,2.834-32.235,8.481-51.092,16.664C14.339,230.961,0.78,244.086,0.78,258.985c0,18.037,17.207,28.606,32.389,37.931    c21.25,13.052,29.238,19.665,22.539,32.709c-1.921,3.741-0.446,8.331,3.295,10.251c1.113,0.572,2.301,0.843,3.472,0.843    c1.555,0,3.071-0.493,4.347-1.381l-7.474,27.429c-1.106,4.058,1.288,8.242,5.345,9.348c4.054,1.104,8.242-1.287,9.348-5.345    l17.784-65.266h100.529l31.16,114.356H60.665l5.465-20.055c1.106-4.058-1.288-8.242-5.345-9.348    c-4.053-1.104-8.241,1.287-9.348,5.345l-8.069,29.615c-0.621,2.282-0.148,4.724,1.283,6.607c1.431,1.883,3.657,2.995,6.021,3.008    l41.181,0.228c6.37,21.204,12.975,38.179,19.659,50.494c2.272,4.187,4.569,7.845,6.896,11.018h-13.378    c-4.206,0-7.614,3.409-7.614,7.614c0,4.205,3.408,7.614,7.614,7.614h74.123c4.206,0,7.614-3.409,7.614-7.614    c0-4.205-3.408-7.614-7.614-7.614h-13.378c2.327-3.172,4.623-6.832,6.895-11.019c6.68-12.309,13.286-29.284,19.661-50.494    l41.181-0.228c2.364-0.013,4.59-1.125,6.021-3.008c1.431-1.883,1.904-4.325,1.283-6.607L205.812,296.95    c0.117-8.407,1.79-16.561,5.013-24.25c2.262-5.423,3.69-11.009,4.324-16.593c17.279,18.176,32.463,24.35,46.248,24.35    c15.406,0,29.064-7.709,41.934-14.975c2.365-1.335,4.812-2.717,7.222-4.023c8.191-4.443,16.252-9.564,24.092-15.266    c0.25,0.492,0.552,0.966,0.919,1.41c1.505,1.821,3.68,2.762,5.872,2.762c1.71,0,3.428-0.572,4.847-1.746l10.431-8.625    c3.24-2.68,3.696-7.479,1.016-10.72c-0.263-0.318-0.551-0.601-0.851-0.865l8.588-7.102    C368.707,218.627,369.163,213.828,366.483,210.587z M134.477,492.338c-6.21-6.265-15.587-21.268-26.678-56.987l26.678,0.148    V492.338z M149.705,492.334v-56.836l26.679-0.148C165.286,471.064,155.911,486.068,149.705,492.334z M214.741,124.818h-13.534    c-4.206,0-7.614,3.409-7.614,7.614v13.583c0,22.206-18.061,40.272-40.262,40.272h-1.594c-0.326,0-0.649-0.027-0.974-0.036    c-1.618-0.172-3.245-0.306-4.881-0.381c-4.855-0.679-9.529-2.214-13.85-4.524v-58.225c0-3.493-2.379-6.537-5.768-7.384    c-2.677-0.669-5.437,0.167-7.292,2.064c-1.949,1.917-4.548,2.938-7.259,2.873c-2.763-0.064-5.314-1.229-7.187-3.282    c-3.388-3.715-3.388-9.759,0-13.473c1.873-2.053,4.424-3.218,7.187-3.282c2.68-0.059,5.287,0.947,7.232,2.847    c1.884,1.949,4.719,2.784,7.426,2.064c3.337-0.886,5.66-3.906,5.66-7.359c0-17.952,14.605-32.558,32.558-32.558h14.488    c5.501,0,10.82-0.787,15.867-2.224L214.741,124.818z M175.392,210.084c-10.029,5.917-21.545,9.115-33.298,9.115    s-23.27-3.199-33.299-9.116c9.98-5.916,21.401-9.076,33.297-9.076c0.856,0,1.708,0.029,2.558,0.062    c1.726,0.214,3.466,0.355,5.218,0.412C158.946,202.551,167.608,205.471,175.392,210.084z M59.846,175.999L76.385,48.588    C78.682,29.57,94.852,15.23,114.002,15.23h107.187c-3.603,19.975-21.116,35.176-42.112,35.176h-14.488    c-22.223,0-40.95,15.246-46.271,35.829c-2.255-0.592-4.586-0.873-6.957-0.819c-6.96,0.16-13.385,3.088-18.086,8.244    c-8.694,9.532-8.694,24.465,0,33.996c4.702,5.156,11.126,8.084,18.086,8.244c1.844,0.046,3.661-0.119,5.441-0.471v48.481    L59.846,175.999z M72.906,317.014c-0.815-4.744-2.959-9.29-6.441-13.613c-6.231-7.734-15.937-13.696-25.325-19.462    c-12.924-7.939-25.132-15.437-25.132-24.956c0-11.027,23.367-24.901,59.063-35.968c-7.784,14.94-8.649,33.075-1.704,49.691    c3.218,7.681,4.891,15.831,5.009,24.233L72.906,317.014z M196.771,266.823c-3.146,7.506-5.1,15.369-5.855,23.455H93.265    c-0.754-8.086-2.707-15.946-5.852-23.448c-6.881-16.464-3.514-34.851,8.578-46.842c0.006-0.006,0.012-0.011,0.018-0.017    c13.462,9.358,29.588,14.457,46.082,14.457c16.494,0,32.619-5.097,46.08-14.455c0.005,0.005,0.011,0.01,0.016,0.015    c3.38,3.351,6.077,7.202,8.06,11.37c0.202,0.978,0.6,1.93,1.206,2.8C201.384,244.296,201.303,255.978,196.771,266.823z" fill="#91DC5A"/>
	</g>
</g>
<g>
	<g>
		<path d="M172.143,146.551c-7.79,0-14.128-6.338-14.128-14.128c0-4.205-3.408-7.614-7.614-7.614c-4.206,0-7.614,3.409-7.614,7.614    c0,16.187,13.169,29.356,29.356,29.356c4.206,0,7.614-3.409,7.614-7.614C179.757,149.96,176.349,146.551,172.143,146.551z" fill="#91DC5A"/>
	</g>
</g>
<g>
	<g>
		<path d="M149.124,244.052c-2.565-6.097-11.51-6.169-14.06,0c-1.222,2.958-0.431,6.474,1.969,8.602    c2.469,2.189,6.142,2.519,8.971,0.836C149.185,251.598,150.573,247.474,149.124,244.052z" fill="#91DC5A"/>
	</g>
</g>
<g>
	<g>
		<path d="M149.124,269.432c-1.233-2.931-4.215-4.855-7.408-4.691c-3.048,0.156-5.76,2.168-6.789,5.038    c-1.054,2.943-0.156,6.318,2.216,8.354c2.503,2.148,6.233,2.4,9.018,0.646C149.237,276.843,150.546,272.789,149.124,269.432z" fill="#91DC5A"/>
	</g>
</g>
<g>
	<g>
		<path d="M505.31,84.147l-44.246-10.153c-0.02-0.005-0.041-0.006-0.061-0.01c-0.208-0.046-0.421-0.08-0.636-0.109    c-0.062-0.008-0.123-0.021-0.184-0.028c-0.271-0.029-0.545-0.046-0.824-0.046H276.627c-4.206,0-7.614,3.409-7.614,7.614v162.43    c0,4.205,3.408,7.614,7.614,7.614s7.614-3.409,7.614-7.614V89.029h167.505v36.04c0,4.205,3.408,7.614,7.614,7.614    s7.614-3.409,7.614-7.614V90.974l29.017,6.659v189.802l-29.016-26.633V150.45c0-4.205-3.408-7.614-7.614-7.614    c-4.206,0-7.614,3.409-7.614,7.614v106.084H328.066c-4.206,0-7.614,3.409-7.614,7.614c0,4.205,3.408,7.614,7.614,7.614h128.331    l27.654,25.382H290.42l-1.673-9.126c-0.758-4.137-4.729-6.875-8.862-6.115c-4.136,0.758-6.874,4.726-6.115,8.862l2.817,15.368    c0.662,3.615,3.814,6.24,7.489,6.24h219.531c0,0,0,0,0.001,0c0,0,0,0,0.001,0c0.053,0,0.105-0.007,0.157-0.008    c0.748-0.015,1.47-0.134,2.15-0.35c0.019-0.006,0.039-0.015,0.059-0.021c0.227-0.074,0.451-0.158,0.668-0.253    c0.009-0.004,0.019-0.007,0.028-0.01c0.021-0.009,0.039-0.022,0.06-0.031c0.285-0.129,0.559-0.275,0.824-0.437    c0.057-0.034,0.115-0.067,0.169-0.104c0.274-0.177,0.537-0.367,0.785-0.577c0.044-0.038,0.084-0.078,0.128-0.116    c0.208-0.184,0.404-0.378,0.591-0.583c0.05-0.055,0.102-0.109,0.149-0.164c0.21-0.244,0.406-0.5,0.585-0.77    c0.021-0.036,0.041-0.072,0.063-0.108c0.158-0.248,0.299-0.506,0.428-0.772c0.027-0.057,0.056-0.113,0.082-0.169    c0.137-0.303,0.259-0.613,0.356-0.935c0.006-0.02,0.01-0.042,0.016-0.062c0.085-0.293,0.151-0.595,0.201-0.903    c0.013-0.079,0.025-0.157,0.037-0.237c0.044-0.33,0.074-0.664,0.074-1.005V91.568C511.22,88.019,508.769,84.941,505.31,84.147z" fill="#91DC5A"/>
	</g>
</g>
<g>
	<g>
		<path d="M339.813,117.761c-1.827,0-2.609,0.783-3.393,2.262l-13.307,25.137l-13.221-25.137c-0.783-1.565-1.653-2.262-3.479-2.262    c-3.044,0-7.48,1.914-7.48,4.696c0,0.261,0.086,0.696,0.261,1.131l18.004,31.139c0.174,0.261,0.261,0.695,0.261,1.131v21.919    c0,2.349,2.87,3.566,5.654,3.566c2.87,0,5.654-1.218,5.654-3.566v-21.919c0-0.436,0.174-0.87,0.347-1.131l17.918-31.139    c0.261-0.435,0.261-0.87,0.261-1.131C347.293,119.674,342.857,117.761,339.813,117.761z" fill="#91DC5A"/>
	</g>
</g>
<g>
	<g>
		<path d="M389.217,171.428h-24.614v-17.483h13.22c2.435,0,3.566-2.348,3.566-4.349c0-2.348-1.305-4.523-3.566-4.523h-13.22v-17.395    h24.614v-0.001c2.262,0,3.566-2.348,3.566-5.044c0-2.348-1.13-4.871-3.566-4.871h-30.964c-2.522,0-4.958,1.217-4.958,3.566v56.449    c0,2.348,2.435,3.566,4.958,3.566h30.964c2.435,0,3.566-2.523,3.566-4.871C392.783,173.777,391.479,171.428,389.217,171.428z" fill="#91DC5A"/>
	</g>
</g>
<g>
	<g>
		<path d="M409.136,133.679c0-4.175,3.566-6.697,9.829-6.697c7.306,0,9.307,3.305,12.003,3.305c3.131,0,4.523-4.001,4.523-6.002    c0-5.741-11.394-6.958-16.526-6.958c-10.003,0-21.135,4.436-21.135,17.396c0,20.614,27.92,16.612,27.92,29.66    c-0.001,5.218-4.525,7.566-9.744,7.566c-8.872,0-11.22-6.697-14.786-6.697c-2.695,0-4.957,3.654-4.957,6.089    c0,5.044,8.697,10.785,20.091,10.785c12.003,0,20.702-6.436,20.702-18.874C437.056,140.724,409.136,144.464,409.136,133.679z" fill="#91DC5A"/>
	</g>
</g>
<g>
</g>
<g>
</g>
<g>
</g>
<g>
</g>
<g>
</g>
<g>
</g>
<g>
</g>
<g>
</g>
<g>
</g>
<g>
</g>
<g>
</g>
<g>
</g>
<g>
</g>
<g>
</g>
<g>
</g>
</svg>
