<?xml version="1.0"?>
<svg xmlns="http://www.w3.org/2000/svg" height="512px" viewBox="0 0 512 512" width="512px"><path d="m402.609375 140.457031c-10.554687 0-19.144531 8.589844-19.144531 19.144531 0 10.554688 8.589844 19.140626 19.144531 19.140626s19.140625-8.585938 19.140625-19.140626c0-10.554687-8.585938-19.144531-19.140625-19.144531zm0 0" fill="#D80027"/><path d="m352.398438 0c-88.003907 0-159.597657 71.597656-159.597657 159.601562 0 45.539063 19.019531 88.082032 52.558594 118.359376-7.496094 17.773437-18.46875 34.136718-32.097656 47.765624-4.289063 4.289063-5.574219 10.742188-3.253907 16.347657 2.324219 5.605469 7.792969 9.261719 13.859376 9.261719 35.214843 0 68.546874-12.625 94.761718-35.726563 11.054688 2.386719 22.378906 3.589844 33.769532 3.589844 88.003906 0 159.601562-71.59375 159.601562-159.597657 0-88.003906-71.597656-159.601562-159.601562-159.601562zm-17.132813 191.734375c0 6.667969-5.230469 15-14.996094 15-4.632812 0-9.117187-2.152344-12.003906-6l-21.199219-28.269531v19.269531c0 8.28125-6.714844 15-15 15s-15-6.71875-15-15v-64.269531c0-6.457032 4.132813-12.1875 10.257813-14.230469 6.125-2.039063 12.867187.066406 16.742187 5.230469l21.199219 28.269531v-19.269531c0-8.28125 6.71875-15 15-15 8.285156 0 15 6.71875 15 15zm67.34375 17.007813c-27.097656 0-49.144531-22.046876-49.144531-49.140626 0-27.097656 22.046875-49.144531 49.144531-49.144531 27.09375 0 49.140625 22.046875 49.140625 49.144531 0 27.09375-22.046875 49.140626-49.140625 49.140626zm0 0" fill="#D80027"/><path d="m111.398438 367.398438c41.90625 0 76-34.09375 76-76s-34.09375-76-76-76-76 34.09375-76 76 34.09375 76 76 76zm0 0" fill="#D80027"/><path d="m111.382812 367.398438c-61.414062 0-111.382812 49.96875-111.382812 111.386718v18.214844c0 8.285156 6.714844 15 15 15h192.800781c8.285157 0 15-6.714844 15-15v-18.199219c0-61.425781-49.976562-111.402343-111.417969-111.402343zm0 0" fill="#D80027"/></svg>
